GIL02_fast3_RRA_states
nRows=7
nColumns=47

# SIMM Motion File Header:
name GIL02_fast3_RRA_states
datacolumns 47
datarows 7
otherdata 1
range 0.51167000000000029000 0.51467000000000029000
endheader
time	pelvis_tx	pelvis_ty	pelvis_tz	pelvis_tilt	pelvis_list	pelvis_rotation	hip_flexion_r	hip_adduction_r	hip_rotation_r	knee_angle_r	ankle_angle_r	subtalar_angle_r	mtp_angle_r	hip_flexion_l	hip_adduction_l	hip_rotation_l	knee_angle_l	ankle_angle_l	subtalar_angle_l	mtp_angle_l	lumbar_extension	lumbar_bending	lumbar_rotation	pelvis_tx_u	pelvis_ty_u	pelvis_tz_u	pelvis_tilt_u	pelvis_list_u	pelvis_rotation_u	hip_flexion_r_u	hip_adduction_r_u	hip_rotation_r_u	knee_angle_r_u	ankle_angle_r_u	subtalar_angle_r_u	mtp_angle_r_u	hip_flexion_l_u	hip_adduction_l_u	hip_rotation_l_u	knee_angle_l_u	ankle_angle_l_u	subtalar_angle_l_u	mtp_angle_l_u	lumbar_extension_u	lumbar_bending_u	lumbar_rotation_u
      0.51167000000000029000	      1.14820826853689130000	      0.92518756472131680000	     -0.17626865497491181000	      0.91892549236709642000	      6.34626098367042250000	     -5.70071832306104120000	    -17.27046655893825600000	     -5.53272372473287620000	      7.87391876301285270000	    -23.09904120822024600000	      1.15617622486183100000	      0.00000000000011305363	     -0.00000000000049919511	     23.27361257247351000000	      8.61913306486156830000	     -4.48063479184035000000	    -12.39755604854519600000	    -13.87836008424652500000	     -0.00000000000000878903	      0.00000000000000105809	     -1.00484278979455440000	     -4.96459696228584770000	      8.66553018750996710000	      1.75364333293261530000	      0.06075805444644217400	     -0.08534734477457998900	    -18.71660151056440600000	     37.38720249050240300000	     25.14734431836365000000	     73.77521563469051100000	    -61.65600429429564100000	    -49.88512245736784900000	   -222.16392551058948000000	   -462.60572002231277000000	      0.00000000000094289443	     -0.00000000000267748724	    -15.61998408371211900000	     93.58237401235994900000	    125.36299697815448000000	   -144.26801712382817000000	    243.93125644007694000000	      0.00000000000000685877	     -0.00000000000015102022	     45.43283910864770500000	    -50.89961301236891000000	    -21.68917334641556800000
      0.51217000000000024000	      1.14908497647834220000	      0.92521841059987042000	     -0.17631141746112897000	      0.90951962035888778000	      6.36497165525441840000	     -5.68810046802974070000	    -17.23320864703251900000	     -5.56363690384729280000	      7.84880665183283010000	    -23.21035963437638800000	      0.92368204151723965000	      0.00000000000011352186	     -0.00000000000050052945	     23.26575740999589600000	      8.66594567278980320000	     -4.41755053640292510000	    -12.46953465876827100000	    -13.75634809773269600000	     -0.00000000000000878497	      0.00000000000000098278	     -0.98210739786860857000	     -4.99006707746966070000	      8.65456013605952630000	      1.75318257264113030000	      0.06262422751164452300	     -0.08570018542209828500	    -18.90654726810437600000	     37.45597254204494700000	     25.32358800960614100000	     75.25699389236771700000	    -61.99722079862506500000	    -50.56288805533886700000	   -223.11078854736132000000	   -467.36258129041096000000	      0.00000000000093893584	     -0.00000000000269159060	    -15.80143280339512700000	     93.66717487033788800000	    126.97120885566552000000	   -143.64293988632477000000	    244.11171091578660000000	      0.00000000000000119229	     -0.00000000000014060120	     45.50791636032236200000	    -50.98171054617439100000	    -22.19126768284732200000
      0.51267000000000029000	      1.14996144528074670000	      0.92525018769023160000	     -0.17635435274630268000	      0.90001929591978469000	      6.38371743812003260000	     -5.67539522281875450000	    -17.19520907723957800000	     -5.59472146224949270000	      7.82335631961478220000	    -23.32215280893598600000	      0.68882112345462387000	      0.00000000000011399384	     -0.00000000000050187797	     23.25781037579918100000	      8.71279933790941460000	     -4.35366645100316150000	    -12.54119564346138700000	    -13.63425406820394600000	     -0.00000000000000878457	      0.00000000000000091298	     -0.95933569655630302000	     -5.01557952812754590000	      8.64333868331576840000	      1.75268684159270300000	      0.06448284624407379900	     -0.08603853926288321200	    -19.09438714518708800000	     37.52763241871340200000	     25.49690361006721100000	     76.74169619728891700000	    -62.34153558582207200000	    -51.23798253365953300000	   -224.06252377106543000000	   -472.07454371993822000000	      0.00000000000093609855	     -0.00000000000264124584	    -15.98746681979409500000	     93.74656301547374000000	    128.56221060640149000000	   -142.99778998196624000000	    244.25800059813207000000	     -0.00000000000000441156	     -0.00000000000010784314	     45.57805407051405000000	    -51.06893805615614900000	    -22.69477921441036000000
      0.51317000000000024000	      1.15083765749479410000	      0.92528289204038827000	     -0.17639745359104284000	      0.89042559575852775000	      6.40249976936883320000	     -5.66260405319285990000	    -17.15646652474092400000	     -5.62597894492150450000	      7.79756917022091760000	    -23.43442296164998600000	      0.45161534304337075000	      0.00000000000011446224	     -0.00000000000050319148	     23.24976915273694900000	      8.75969133275804700000	     -4.28899132765687780000	    -12.61252915746458000000	    -13.51209577885300600000	     -0.00000000000000878551	      0.00000000000000085664	     -0.93653017943765149000	     -5.04113687007240690000	      8.63186514344598340000	      1.75215616150251250000	      0.06633302757564775400	     -0.08636243343236400800	    -19.28005087715607900000	     37.60218107764922700000	     25.66728452565590500000	     78.22895243205267900000	    -62.68888165493599000000	    -51.91006760397496600000	   -225.01908118134702000000	   -476.73941155670997000000	      0.00000000000093465232	     -0.00000000000260464834	    -16.17824557274269300000	     93.82053086106454000000	    130.13519855846570000000	   -142.33288876073073000000	    244.37020509187781000000	     -0.00000000000000275465	     -0.00000000000010436700	     45.64317728751495900000	    -51.16129132576802600000	    -23.19956869003601000000
      0.51367000000000029000	      1.15171359562721000000	      0.92531651916175728000	     -0.17644071276087531000	      0.88073962280932139000	      6.42132009366292240000	     -5.64972843628026930000	    -17.11697976501074300000	     -5.65741083122235810000	      7.77144682331834690000	    -23.54717269233747200000	      0.21209000583734794000	      0.00000000000011492982	     -0.00000000000050449523	     23.24163130126835600000	      8.80661895529166120000	     -4.22353439037281490000	    -12.68352527332735000000	    -13.38988950625933300000	     -0.00000000000000878871	      0.00000000000000081190	     -0.91369337066867828000	     -5.06674166559104670000	      8.62013893248637860000	      1.75159059323941650000	      0.06817386991262519600	     -0.08667181180730480800	    -19.46344702982463900000	     37.67957488060323400000	     25.83467602607431200000	     79.71836464255784400000	    -63.03914954745460600000	    -52.57872163557292600000	   -225.98045118932117000000	   -481.35449666045861000000	      0.00000000000093542979	     -0.00000000000261293136	    -16.37400021542850600000	     93.88901603075684900000	    131.68935692741636000000	   -141.64843116915705000000	    244.44855576851802000000	     -0.00000000000001147334	     -0.00000000000007343518	     45.70319128705333600000	    -51.25871958710416000000	    -23.70544912502783000000
      0.51417000000000024000	      1.15258924228164460000	      0.92535106419742463000	     -0.17648412298879063000	      0.87096253800326195000	      6.44017981708417600000	     -5.63676987645993140000	    -17.07674786254088100000	     -5.68901856904378530000	      7.74499107599625700000	    -23.66040420557212400000	     -0.02973049156549518700	      0.00000000000011539817	     -0.00000000000050580090	     23.23339429748187300000	      8.85357943397854010000	     -4.15730524044450430000	    -12.75417438527992800000	    -13.26765285013018800000	     -0.00000000000000879535	      0.00000000000000078280	     -0.89082785168099654000	     -5.09239643315914400000	      8.60815953553643000000	      1.75099018852797170000	      0.07000443199999094300	     -0.08696670225857366900	    -19.64450666011356700000	     37.75980425362092800000	     25.99906971716805200000	     81.20955957089135800000	    -63.39226321061324400000	    -53.24360729886882400000	   -226.94657877605587000000	   -485.91758703428104000000	      0.00000000000093230815	     -0.00000000000258308610	    -16.57488725478023600000	     93.95201030189059600000	    133.22389436816741000000	   -140.94474970609591000000	    244.49314959260263000000	     -0.00000000000002143485	     -0.00000000000002965508	     45.75802344612945700000	    -51.36120727500199500000	    -24.21227979536300300000
      0.51467000000000029000	      1.15346458002448050000	      0.92538652172103208000	     -0.17652767703950559000	      0.86109552050092131000	      6.45908036194769420000	     -5.62372987542501960000	    -17.03576997467760300000	     -5.72080354914888470000	      7.71820391379924510000	    -23.77412006205545600000	     -0.27381847006748705000	      0.00000000000011586532	     -0.00000000000050710000	     23.22505552057193500000	      8.90057004006573750000	     -4.09031389996980450000	    -12.82446685292022300000	    -13.14540194073955000000	     -0.00000000000000880580	      0.00000000000000076803	     -0.86793622621356692000	     -5.11810370590528140000	      8.59592652545686240000	      1.75035503843508540000	      0.07182375510756250400	     -0.08724704829440287100	    -19.82313917954535000000	     37.84281614312053700000	     26.16040874475625000000	     82.70213625803859300000	    -63.74810302759522800000	    -53.90430307903456300000	   -227.91745139093345000000	   -490.42599202708050000000	      0.00000000000093521417	     -0.00000000000260265008	    -16.78113714873955300000	     94.00944958035353200000	    134.73800600163932000000	   -140.22204440256374000000	    244.50424441157665000000	     -0.00000000000001887109	     -0.00000000000002671971	     45.80758083391415200000	    -51.46869133054254800000	    -24.71987199651989500000
